<?xml version="1.0" encoding="utf-8"?>
<!-- Generator: Adobe Illustrator 25.4.1, SVG Export Plug-In . SVG Version: 6.00 Build 0)  -->
<svg version="1.1" id="Layer_1" xmlns="http://www.w3.org/2000/svg" xmlns:xlink="http://www.w3.org/1999/xlink" x="0px" y="0px"
	 viewBox="0 0 937.8 1080" style="enable-background:new 0 0 937.8 1080;" xml:space="preserve">
<style type="text/css">
	.st0{fill:#FFFFFF;}
</style>
<path class="st0" d="M221.1,100.9c0,48.3,0,95.5,0,146.2c20.5-8.5,39-15.5,56.8-24c3.2-1.6,4.8-9.4,4.9-14.3
	c0.4-40.8-0.1-81.5,0.7-122.3c0.1-5.5,4.7-14,9.5-16C348.3,46.9,404.1,24.1,460,1.8c5.9-2.4,14.4-2.4,20.4,0
	c53.9,21.5,107.3,44,161.2,65.5c11.4,4.5,16.1,10.1,15.8,23.1c-1,39.1,0,78.2-0.6,117.3c-0.2,10.6,3.2,16.2,13.2,19.7
	c15.6,5.5,30.7,12.3,48.1,19.4c0-50,0-97.3,0-147.3c15.3,6.3,28.5,11.7,41.7,17.1c54.7,22.5,109.3,45.2,164.1,67.2
	c10.9,4.4,14.9,9.9,14.8,22c-0.7,64.8-0.6,129.6,0,194.3c0.1,11.3-3.7,16.6-13.3,21.8c-136.1,73.2-271.8,147.1-408,220.2
	c-11.5,6.2-15.7,12.9-15.3,25.9c1,30.7-0.1,61.4,0.4,92.1c0.5,35.2,13.9,66.1,34.4,95.4c-21,14.2-41.1,28.1-61.7,41.3
	c-2.7,1.8-8.7,1.5-11.5-0.4c-20.1-13-39.8-26.7-57.5-38.8c9.5-24.2,23.5-46.6,26.3-70.4c5.1-43,3.9-86.8,3.9-130.2
	c0-4.8-8-11.1-13.6-14.2c-126-68.5-251.4-138-378.7-203.9C11,421.9-2.5,403.7,0.4,365.7c4-53.3,1.1-107.2,0.9-160.8
	c0-8.9,0.6-15.3,10.8-19.4c67.2-27.1,134.2-55,201.2-82.6C215.3,102.1,217.5,101.8,221.1,100.9z M503.2,573.3c3-0.2,4.2,0.1,5.1-0.3
	c118.8-64.1,237.6-128.1,356.1-192.7c4.1-2.3,7.9-9.4,8-14.3c0.7-40.7,0.5-81.5,0.3-122.3c0-3.9-1.5-10.3-4.2-11.4
	c-27.2-11.9-54.8-23-84.7-35.3c0,50.7,0,97.9,0,145.7c-3.1-0.5-4.8-0.5-6.3-1c-58.8-24.1-117.7-48-176.2-72.8
	c-4.7-2-9.2-10.7-9.3-16.3c-0.8-40.2-0.2-80.4-0.6-120.6c-0.1-5.4-1.7-14.1-5.2-15.7c-26.7-12.2-54-23-83-35
	C503.2,246.7,503.2,409.5,503.2,573.3z M156,196.9c-27.8,11.3-51.8,21.6-76.2,30.9c-9.7,3.7-13.5,8.9-13.3,19.6
	c0.7,37.9,0.7,75.9,0,113.9c-0.2,11.1,3.7,16.7,13.3,21.9c115.9,62.3,231.6,125,347.4,187.6c2.6,1.4,5.7,1.9,9.2,3
	c0-164.2,0-327,0-492.4c-26.2,10.8-50.5,21.5-75.4,30.7c-10.2,3.8-13.3,9.1-13.1,19.6c0.6,39.1-0.4,78.2,0.6,117.2
	c0.3,12.9-4.1,18.9-15.8,23c-16.8,5.9-33,13.4-49.5,20.2c-41.6,17.1-83.2,34.1-127.1,52.1C156,294.5,156,247.4,156,196.9z"/>
<path class="st0" d="M283,967.7c0-67.8,0.2-133.7-0.1-199.5c-0.1-21.6,5.7-47.3-3.9-63.7c-9.3-15.8-34.8-22.1-53.4-32.2
	c-60.3-32.7-120.3-66.1-181.4-97.3C13.6,559.2-1.8,537.4,1.3,503c0.7-7.6,0.1-15.2,0.1-25.8c21.4,11.5,40.4,21.7,59.3,31.9
	c91.7,49.6,183.4,99.4,275.3,148.8c8.1,4.4,12.4,9.1,12.4,19.2c-0.4,130.1-0.2,260.2-0.3,390.3c0,3.1-0.6,6.2-1.2,12.5
	c-45.9-28.4-96.1-44.9-134.3-81.1c-36-34.2-54.5-77.1-56.3-126.8c-1-28.4-0.9-57-0.3-85.4c0.2-11.3-2.4-18.4-13.5-23.5
	c-18.2-8.5-35.3-19.2-53.2-28.3c-24-12-35.9-30.8-34.7-57.8c0.4-10.6,0.1-21.1,0.1-33.2c4,1.3,7,1.9,9.7,3.3
	c48.6,26.2,97.1,52.7,145.9,78.5c8.8,4.7,11.2,10.4,11.1,19.8c-0.5,37.4-0.5,74.8-0.1,112.2c0.4,40.1,16,73.6,45.7,100.5
	c2.9,2.6,6,5,9.2,7.3C277.2,966.4,278.9,966.5,283,967.7z"/>
<path class="st0" d="M938,477.9c0,16.3,0.7,30.2-0.2,44c-1.5,23.5-15.2,38.2-35.4,49c-77.7,41.5-155,83.8-232.8,125.3
	c-9.7,5.2-13.2,10.7-13.2,21.9c0.5,82.6,0.3,165.2,0.3,250.7c5.4-3.2,9.3-4.8,12.3-7.3c31.8-26.5,48.7-60.6,49.4-102
	c0.6-38-0.1-75.9,0.5-113.9c0.1-5.7,2.7-14.2,6.9-16.5c52-29,104.4-57.2,158.8-86.7c0,18.2,1.3,34.2-0.3,50
	c-1.9,18.4-13.2,31.5-29.4,40.2c-19.2,10.3-37.9,21.4-57.5,30.8c-10.8,5.2-13.6,12.1-13.5,23.5c0.2,33.5,1.3,67.1-2,100.3
	c-6,60.5-36.9,106.9-89.1,138c-32,19-65.2,35.8-99.8,54.7c-0.5-6.6-1.2-10.7-1.2-14.9c0-127.8,0.2-255.7-0.3-383.5
	c0-12.1,3.4-18.9,14.3-24.7c107.1-57.4,214-115.5,320.9-173.3C929.5,481.8,932.5,480.5,938,477.9z"/>
</svg>
